<svg xmlns="http://www.w3.org/2000/svg" width="40" height="40" viewBox="0 0 48 48">
  <g>
    <path fill="#4285F4" d="M43.6 20.5H42V20H24v8h11.3C34.7 32.1 30.1 35 24 35c-6.1 0-11.3-5-11.3-11S17.9 13 24 13c2.6 0 5 .8 6.9 2.3l6.5-6.5C34.6 5.5 29.6 3.5 24 3.5 12.4 3.5 3 12.9 3 24.5S12.4 45.5 24 45.5c11.6 0 21-9.4 21-21 0-1.4-.1-2.7-.4-4z"/>
    <path fill="#34A853" d="M6.3 14.1l6.6 4.8C14.5 16.1 18.9 13 24 13c2.6 0 5 .8 6.9 2.3l6.5-6.5C34.6 5.5 29.6 3.5 24 3.5c-7.2 0-13.5 4-17 10.6z"/>
    <path fill="#FBBC05" d="M24 45.5c5.6 0 10.6-1.9 14.5-5.2l-6.7-5.5C29.7 36.1 27 37 24 37c-6.1 0-11.3-5-11.3-11H6.3C7.7 38.1 15.1 45.5 24 45.5z"/>
    <path fill="#EA4335" d="M43.6 20.5H42V20H24v8h11.3c-1.6 4.1-6.1 7-11.3 7-6.1 0-11.3-5-11.3-11H6.3C7.7 38.1 15.1 45.5 24 45.5c6.5 0 12-2.1 15.7-5.7l-6.7-5.5C29.7 36.1 27 37 24 37c-6.1 0-11.3-5-11.3-11H6.3C7.7 38.1 15.1 45.5 24 45.5z"/>
  </g>
</svg>